<?xml version="1.0" encoding="UTF-8" standalone="no"?>
<!DOCTYPE svg PUBLIC "-//W3C//DTD SVG 1.1//EN"
 "http://www.w3.org/Graphics/SVG/1.1/DTD/svg11.dtd">
<!-- Generated by graphviz version 2.38.0 (20140413.2041)
 -->
<!-- Title: G Pages: 1 -->
<svg width="483pt" height="600pt"
 viewBox="0.00 0.00 483.49 600.00" xmlns="http://www.w3.org/2000/svg" xmlns:xlink="http://www.w3.org/1999/xlink">
<g id="graph0" class="graph" transform="scale(1 1) rotate(0) translate(4 596)">
<title>G</title>
<polygon fill="white" stroke="none" points="-4,4 -4,-596 479.491,-596 479.491,4 -4,4"/>
<g id="clust1" class="cluster"><title>cluster_Global</title>
<path fill="none" stroke="gray" d="M157.491,-8C157.491,-8 455.491,-8 455.491,-8 461.491,-8 467.491,-14 467.491,-20 467.491,-20 467.491,-572 467.491,-572 467.491,-578 461.491,-584 455.491,-584 455.491,-584 157.491,-584 157.491,-584 151.491,-584 145.491,-578 145.491,-572 145.491,-572 145.491,-20 145.491,-20 145.491,-14 151.491,-8 157.491,-8"/>
<text text-anchor="middle" x="306.491" y="-571.2" font-family="Times,serif" font-size="11.00" fill="gray">Global</text>
</g>
<g id="clust2" class="cluster"><title>cluster_\Tango</title>
<path fill="none" stroke="gray" d="M165.491,-16C165.491,-16 447.491,-16 447.491,-16 453.491,-16 459.491,-22 459.491,-28 459.491,-28 459.491,-544 459.491,-544 459.491,-550 453.491,-556 447.491,-556 447.491,-556 165.491,-556 165.491,-556 159.491,-556 153.491,-550 153.491,-544 153.491,-544 153.491,-28 153.491,-28 153.491,-22 159.491,-16 165.491,-16"/>
<text text-anchor="middle" x="306.491" y="-543.2" font-family="Times,serif" font-size="11.00" fill="gray">Tango</text>
</g>
<g id="clust3" class="cluster"><title>cluster_\Tango\Core</title>
<path fill="none" stroke="gray" d="M173.491,-24C173.491,-24 276.491,-24 276.491,-24 282.491,-24 288.491,-30 288.491,-36 288.491,-36 288.491,-516 288.491,-516 288.491,-522 282.491,-528 276.491,-528 276.491,-528 173.491,-528 173.491,-528 167.491,-528 161.491,-522 161.491,-516 161.491,-516 161.491,-36 161.491,-36 161.491,-30 167.491,-24 173.491,-24"/>
<text text-anchor="middle" x="224.991" y="-515.2" font-family="Times,serif" font-size="11.00" fill="gray">Core</text>
</g>
<g id="clust4" class="cluster"><title>cluster_\Tango\Drive</title>
<path fill="none" stroke="gray" d="M356.491,-104C356.491,-104 439.491,-104 439.491,-104 445.491,-104 451.491,-110 451.491,-116 451.491,-116 451.491,-272 451.491,-272 451.491,-278 445.491,-284 439.491,-284 439.491,-284 356.491,-284 356.491,-284 350.491,-284 344.491,-278 344.491,-272 344.491,-272 344.491,-116 344.491,-116 344.491,-110 350.491,-104 356.491,-104"/>
<text text-anchor="middle" x="397.991" y="-271.2" font-family="Times,serif" font-size="11.00" fill="gray">Drive</text>
</g>
<g id="clust5" class="cluster"><title>cluster_\Tango\Page</title>
<path fill="none" stroke="gray" d="M374.991,-24C374.991,-24 420.991,-24 420.991,-24 426.991,-24 432.991,-30 432.991,-36 432.991,-36 432.991,-84 432.991,-84 432.991,-90 426.991,-96 420.991,-96 420.991,-96 374.991,-96 374.991,-96 368.991,-96 362.991,-90 362.991,-84 362.991,-84 362.991,-36 362.991,-36 362.991,-30 368.991,-24 374.991,-24"/>
<text text-anchor="middle" x="397.991" y="-83.2" font-family="Times,serif" font-size="11.00" fill="gray">Page</text>
</g>
<!-- \\Tango\\Core\\Signal -->
<g id="node1" class="node"><title>\\Tango\\Core\\Signal</title>
<polygon fill="none" stroke="black" points="253.491,-500 196.491,-500 196.491,-464 253.491,-464 253.491,-500"/>
<text text-anchor="middle" x="224.991" y="-479.2" font-family="Courier,monospace" font-size="11.00">Signal</text>
</g>
<!-- \\Tango\\Core\\Util -->
<g id="node2" class="node"><title>\\Tango\\Core\\Util</title>
<polygon fill="none" stroke="black" points="251.991,-446 197.991,-446 197.991,-410 251.991,-410 251.991,-446"/>
<text text-anchor="middle" x="224.991" y="-425.2" font-family="Courier,monospace" font-size="11.00">Util</text>
</g>
<!-- \\Tango\\Core\\Config -->
<g id="node3" class="node"><title>\\Tango\\Core\\Config</title>
<polygon fill="none" stroke="black" points="253.491,-392 196.491,-392 196.491,-356 253.491,-356 253.491,-392"/>
<text text-anchor="middle" x="224.991" y="-371.2" font-family="Courier,monospace" font-size="11.00">Config</text>
</g>
<!-- \\Tango\\Core\\Tango -->
<g id="node4" class="node"><title>\\Tango\\Core\\Tango</title>
<polygon fill="none" stroke="black" points="251.991,-338 197.991,-338 197.991,-302 251.991,-302 251.991,-338"/>
<text text-anchor="middle" x="224.991" y="-317.2" font-family="Courier,monospace" font-size="11.00">Tango</text>
</g>
<!-- \\Tango\\Core\\Debug -->
<g id="node5" class="node"><title>\\Tango\\Core\\Debug</title>
<polygon fill="none" stroke="black" points="251.991,-284 197.991,-284 197.991,-248 251.991,-248 251.991,-284"/>
<text text-anchor="middle" x="224.991" y="-263.2" font-family="Courier,monospace" font-size="11.00">Debug</text>
</g>
<!-- \\Tango\\Core\\Page -->
<g id="node6" class="node"><title>\\Tango\\Core\\Page</title>
<polygon fill="none" stroke="black" points="251.991,-230 197.991,-230 197.991,-194 251.991,-194 251.991,-230"/>
<text text-anchor="middle" x="224.991" y="-209.2" font-family="Courier,monospace" font-size="11.00">Page</text>
</g>
<!-- \\Tango\\Core\\TangoException -->
<g id="node7" class="node"><title>\\Tango\\Core\\TangoException</title>
<polygon fill="none" stroke="black" points="280.491,-176 169.491,-176 169.491,-140 280.491,-140 280.491,-176"/>
<text text-anchor="middle" x="224.991" y="-155.2" font-family="Courier,monospace" font-size="11.00">TangoException</text>
</g>
<!-- \\Exception -->
<g id="node14" class="node"><title>\\Exception</title>
<ellipse fill="none" stroke="black" cx="48.7457" cy="-158" rx="48.9926" ry="18"/>
<text text-anchor="middle" x="48.7457" y="-154.3" font-family="Times,serif" font-size="14.00" fill="gray">\Exception</text>
</g>
<!-- \\Tango\\Core\\TangoException&#45;&gt;\\Exception -->
<g id="edge1" class="edge"><title>\\Tango\\Core\\TangoException&#45;&gt;\\Exception</title>
<path fill="none" stroke="black" d="M169.337,-158C149.789,-158 127.696,-158 107.866,-158"/>
<polygon fill="none" stroke="black" points="107.728,-154.5 97.7283,-158 107.728,-161.5 107.728,-154.5"/>
</g>
<!-- \\Tango\\Core\\Filter -->
<g id="node8" class="node"><title>\\Tango\\Core\\Filter</title>
<polygon fill="none" stroke="black" points="253.491,-122 196.491,-122 196.491,-86 253.491,-86 253.491,-122"/>
<text text-anchor="middle" x="224.991" y="-101.2" font-family="Courier,monospace" font-size="11.00">Filter</text>
</g>
<!-- \\Tango\\Core\\Log -->
<g id="node9" class="node"><title>\\Tango\\Core\\Log</title>
<polygon fill="none" stroke="black" points="251.991,-68 197.991,-68 197.991,-32 251.991,-32 251.991,-68"/>
<text text-anchor="middle" x="224.991" y="-47.2" font-family="Courier,monospace" font-size="11.00">Log</text>
</g>
<!-- \\Tango\\Drive\\DBException -->
<g id="node10" class="node"><title>\\Tango\\Drive\\DBException</title>
<polygon fill="none" stroke="black" points="443.491,-256 352.491,-256 352.491,-220 443.491,-220 443.491,-256"/>
<text text-anchor="middle" x="397.991" y="-235.2" font-family="Courier,monospace" font-size="11.00">DBException</text>
</g>
<!-- \\Tango\\Drive\\DBException&#45;&gt;\\Tango\\Core\\TangoException -->
<g id="edge2" class="edge"><title>\\Tango\\Drive\\DBException&#45;&gt;\\Tango\\Core\\TangoException</title>
<path fill="none" stroke="black" d="M361.026,-219.91C339.995,-209.463 312.87,-196.213 288.491,-185 284.968,-183.379 281.321,-181.731 277.64,-180.088"/>
<polygon fill="none" stroke="black" points="279.032,-176.876 268.47,-176.034 276.202,-183.279 279.032,-176.876"/>
</g>
<!-- \\Tango\\Drive\\DB -->
<g id="node11" class="node"><title>\\Tango\\Drive\\DB</title>
<polygon fill="none" stroke="black" points="424.991,-202 370.991,-202 370.991,-166 424.991,-166 424.991,-202"/>
<text text-anchor="middle" x="397.991" y="-181.2" font-family="Courier,monospace" font-size="11.00">DB</text>
</g>
<!-- \\Tango\\Drive\\DBEnumBase -->
<g id="node12" class="node"><title>\\Tango\\Drive\\DBEnumBase</title>
<polygon fill="none" stroke="black" points="439.991,-148 355.991,-148 355.991,-112 439.991,-112 439.991,-148"/>
<text text-anchor="start" x="363.991" y="-133.2" font-family="Courier,monospace" font-size="11.00">«abstract»</text>
<text text-anchor="start" x="363.991" y="-121.2" font-family="Courier,monospace" font-size="11.00">DBEnumBase</text>
</g>
<!-- \\Tango\\Page\\HTML -->
<g id="node13" class="node"><title>\\Tango\\Page\\HTML</title>
<polygon fill="none" stroke="black" points="424.991,-68 370.991,-68 370.991,-32 424.991,-32 424.991,-68"/>
<text text-anchor="middle" x="397.991" y="-47.2" font-family="Courier,monospace" font-size="11.00">HTML</text>
</g>
</g>
</svg>
